{"asset":{"version":"2.0","generator":"babylon.js glTF exporter for Autodesk MAYA 2023.3 v20250723.2"},"scene":0,"scenes":[{"nodes":[0]}],"nodes":[{"children":[1,3],"name":"DynaMite"},{"children":[2],"name":"geo"},{"skin":0,"mesh":0,"name":"Dynamite"},{"children":[4],"translation":[0.0,-1.097016E-08,-0.06733436],"rotation":[-1.0,-3.300118E-15,-7.54979E-08,4.371139E-08],"name":"root"},{"children":[5,8,13,17,21,25],"translation":[5.14854159E-09,-0.325826347,-0.03409722],"rotation":[-0.999725759,4.55664573E-09,-1.94523153E-07,-0.02341827],"scale":[1.0,0.99999994,0.99999994],"name":"hips"},{"children":[6],"translation":[3.701036E-15,4.773032E-09,-1.3038516E-08],"rotation":[-0.999938667,6.60238175E-09,-8.34414266E-07,0.0110770147],"name":"spine"},{"children":[7],"translation":[2.974014E-07,-2.87372171E-08,-0.206249714],"rotation":[0.0226137452,-2.42817663E-07,2.24161511E-07,0.999744236],"name":"head"},{"translation":[1.79284044E-07,-1.16616157E-08,-0.18586202],"name":"head_end"},{"children":[9],"translation":[5.82987347E-08,-0.144351944,-0.263878554],"rotation":[-0.1428809,4.81736828E-09,-3.33700427E-08,0.9897399],"name":"tail"},{"children":[10],"translation":[6.279963E-08,-1.3807292E-07,-0.272096634],"rotation":[0.06321355,9.508051E-10,1.50110786E-08,0.997999966],"name":"tail1"},{"children":[11],"translation":[3.6429352E-08,-4.63009222E-08,-0.154764488],"rotation":[0.132148191,4.12703072E-09,3.095643E-08,0.99123],"name":"tail2"},{"children":[12],"translation":[4.96647026E-08,9.83547E-09,-0.1976099],"rotation":[0.08625119,1.76705173E-09,2.04109245E-08,0.9962734],"name":"tail3"},{"translation":[5.063671E-08,5.083509E-08,-0.194802761],"name":"tail_end"},{"children":[14],"translation":[0.1067736,-0.084425956,0.1265145],"rotation":[-0.8261872,-0.129277721,-0.116404131,0.5358657],"name":"fronLeg_L"},{"children":[15],"translation":[0.05007422,0.0154250246,-0.12411736],"rotation":[0.0507614575,-0.00420739967,0.173757151,0.9834704],"scale":[1.0,1.0,0.99999994],"name":"frontLeg1_L"},{"children":[16],"translation":[0.00211686641,1.71628258E-08,-0.0754874],"rotation":[0.331739068,5.67683767E-09,0.009302892,0.9433253],"name":"frontLeg2_L"},{"translation":[0.0016518695,-3.156997E-08,-0.0589055158],"name":"frontLegEnd_L"},{"children":[18],"translation":[0.112101704,-0.07752783,-0.118048996],"rotation":[-0.5215171,-0.101750985,-0.110560551,0.8399066],"scale":[0.99999994,1.0,1.0],"name":"backleg_L"},{"children":[19],"translation":[0.0307703447,0.0117492853,-0.133951321],"rotation":[-0.288686365,-0.0344205275,0.154786944,0.944201469],"name":"backLeg1_L"},{"children":[20],"translation":[-0.00239594118,-2.55624988E-09,-0.06366121],"rotation":[0.282794029,-7.525375E-09,-0.0106432419,0.9591216],"name":"backLeg2_L"},{"translation":[-0.0021245135,-3.73417066E-08,-0.0564492121],"name":"backLegEnd_L"},{"children":[22],"translation":[-0.106773667,-0.084425956,0.126514435],"rotation":[-0.8261872,0.129277587,0.116403908,0.5358657],"scale":[1.0,1.0,0.99999994],"name":"frontLeg_R"},{"children":[23],"translation":[-0.0500742272,0.0154250292,-0.124117374],"rotation":[0.05076149,0.004207397,-0.17375724,0.9834704],"name":"frontLeg1_R"},{"children":[24],"translation":[-0.002116866,4.603984E-09,-0.07548738],"rotation":[0.3317391,-6.664114E-09,-0.009302894,0.9433253],"name":"frontLeg2_R"},{"translation":[-0.001651874,-3.48369333E-08,-0.0589055158],"name":"frontLegEnd_R"},{"children":[26],"translation":[-0.112101667,-0.07752782,-0.118049048],"rotation":[-0.521517038,0.101750739,0.110560365,0.839906633],"name":"backLeg_R"},{"children":[27],"translation":[-0.03077032,0.0117492937,-0.133951321],"rotation":[-0.288686335,0.0344205536,-0.154787064,0.944201469],"scale":[1.0,0.99999994,1.0],"name":"backLeg1_R"},{"children":[28],"translation":[0.00239596725,-9.766852E-09,-0.06366118],"rotation":[0.282793969,-1.019567E-08,0.0106432131,0.9591216],"name":"backLeg2_R"},{"translation":[0.002124522,-3.73928977E-08,-0.0564492121],"name":"backLegEnd_R"}],"meshes":[{"primitives":[{"attributes":{"POSITION":1,"TANGENT":2,"NORMAL":3,"TEXCOORD_0":4,"JOINTS_0":5,"JOINTS_1":6,"WEIGHTS_0":7,"WEIGHTS_1":8},"indices":0,"material":0}],"name":"Dynamite"}],"accessors":[{"bufferView":0,"componentType":5123,"count":7656,"type":"SCALAR","name":"accessorIndices"},{"bufferView":1,"componentType":5126,"count":7656,"max":[0.5461104,0.9542072,0.5455933],"min":[-0.5032555,-1.88350668E-07,-1.1169765],"type":"VEC3","name":"accessorPositions"},{"bufferView":2,"componentType":5126,"count":7656,"type":"VEC4","name":"accessorTangents"},{"bufferView":1,"byteOffset":91872,"componentType":5126,"count":7656,"type":"VEC3","name":"accessorNormals"},{"bufferView":3,"componentType":5126,"count":7656,"type":"VEC2","name":"accessorUVs"},{"bufferView":4,"componentType":5123,"count":7656,"type":"VEC4","name":"accessorJoints"},{"bufferView":4,"byteOffset":61248,"componentType":5123,"count":7656,"type":"VEC4","name":"accessorJointsExtra"},{"bufferView":2,"byteOffset":122496,"componentType":5126,"count":7656,"type":"VEC4","name":"accessorWeights"},{"bufferView":2,"byteOffset":244992,"componentType":5126,"count":7656,"type":"VEC4","name":"accessorWeightsExtra"},{"bufferView":5,"componentType":5126,"count":27,"type":"MAT4","name":"accessorInverseBindMatrices"}],"bufferViews":[{"buffer":0,"byteLength":15312,"name":"bufferViewScalar"},{"buffer":0,"byteOffset":15312,"byteLength":183744,"byteStride":12,"name":"bufferViewFloatVec3"},{"buffer":0,"byteOffset":199056,"byteLength":367488,"byteStride":16,"name":"bufferViewFloatVec4"},{"buffer":0,"byteOffset":566544,"byteLength":61248,"byteStride":8,"name":"bufferViewFloatVec2"},{"buffer":0,"byteOffset":627792,"byteLength":122496,"byteStride":8,"name":"bufferViewUnsignedShortVec4"},{"buffer":0,"byteOffset":750288,"byteLength":1728,"name":"bufferViewFloatMat4"}],"buffers":[{"uri":"dynamite_rig.bin","byteLength":752016}],"materials":[{"pbrMetallicRoughness":{"baseColorTexture":{"index":0},"metallicFactor":0.0,"roughnessFactor":0.450053632},"name":"Dynamite_Texture"}],"textures":[{"sampler":0,"source":0,"name":"Dynamite_Col.png"}],"images":[{"uri":"Dynamite_Col.png"}],"samplers":[{"magFilter":9729,"minFilter":9987}],"skins":[{"inverseBindMatrices":9,"skeleton":0,"joints":[0,3,4,5,6,7,8,9,10,11,12,13,14,15,16,17,18,19,20,21,22,23,24,25,26,27,28],"name":"skeleton #0"}]}