{"asset":{"version":"2.0","generator":"babylon.js glTF exporter for Autodesk MAYA 2023.3 v20250723.2"},"scene":0,"scenes":[{"nodes":[0]}],"nodes":[{"children":[1,4],"name":"mossum"},{"children":[2,3],"name":"geo"},{"skin":0,"mesh":0,"name":"body"},{"skin":1,"mesh":1,"name":"everything_else"},{"children":[5],"rotation":[-1.54543152E-08,0.707106769,1.54543116E-08,0.707106769],"name":"root"},{"children":[6,17,22,26,30,34],"translation":[-0.007931249,0.214154929,1.35508467E-08],"rotation":[-0.7071068,3.09086161E-08,-0.7071067,-3.09086232E-08],"scale":[0.99999994,1.0,0.99999994],"name":"hips"},{"children":[7],"translation":[-0.001657178,0.004761552,-0.07705006],"rotation":[0.0,-9.139114E-08,0.0,1.0],"name":"tailbone_001"},{"children":[8],"translation":[-1.65442042E-08,-1.043594E-08,-0.06405527],"name":"tail_001"},{"children":[9],"translation":[-2.12549036E-08,-1.34074032E-08,-0.08229397],"name":"tail_002"},{"children":[10],"translation":[-2.083935E-08,-1.3145276E-08,-0.0806850642],"name":"tail_003"},{"children":[11],"translation":[-1.821955E-08,-1.1492733E-08,-0.07054182],"name":"tail_004"},{"children":[12],"translation":[-1.4885245E-08,-9.389485E-09,-0.0576321743],"name":"tail_005"},{"children":[13],"translation":[-1.452801E-08,-9.164144E-09,-0.0562490448],"name":"tail_006"},{"children":[14],"translation":[-1.64333223E-08,-1.03659952E-08,-0.0636259541],"name":"tail_007"},{"children":[15],"translation":[-1.30990223E-08,-8.26275048E-09,-0.0507163331],"name":"tail_008"},{"children":[16],"translation":[-1.07174021E-08,-6.760447E-09,-0.0414952561],"name":"tail_009"},{"translation":[-1.00028874E-08,-6.309727E-09,-0.0387288257],"name":"tail_009_end"},{"children":[18],"translation":[-1.16573255E-13,-1.62714284E-13,5.96862566E-13],"rotation":[-1.0,-3.30011787E-15,7.54978942E-08,-4.371139E-08],"name":"spine_001"},{"children":[19],"translation":[-6.556321E-09,-1.41482088E-08,-0.0868410841],"rotation":[0.141421348,-2.35607853E-08,-1.44988768E-08,0.989949465],"name":"spine_002"},{"children":[20],"translation":[-7.795433E-09,-1.40482781E-08,-0.07967076],"rotation":[0.117404558,-7.5100516E-08,-2.3709374E-08,0.9930842],"scale":[1.0,0.99999994,0.99999994],"name":"neck"},{"children":[21],"translation":[-1.73851262E-08,0.01091898,-0.07630182],"rotation":[-0.36583066,-4.522058E-08,1.15042177E-07,0.930681467],"name":"head"},{"translation":[-4.39767E-08,-2.64256439E-08,-0.115371346],"name":"head_end"},{"children":[23],"translation":[0.05417612,0.100464806,-0.0909043849],"rotation":[0.713089645,0.004540746,0.0046187737,0.70104295],"scale":[0.99999994,1.0,1.0],"name":"backThigh_R"},{"children":[24],"translation":[0.0007635143,-0.0264014956,-0.058937788],"rotation":[-0.008517779,4.191357E-08,-0.000110449793,0.999963641],"name":"backLeg_R"},{"children":[25],"translation":[0.0005590154,0.0264053121,-0.0431513637],"rotation":[0.6021451,3.84965233E-08,0.00780072343,0.7983486],"name":"backFoot_R"},{"translation":[0.000313056342,-4.317832E-09,-0.0241651274],"name":"backFoot_R_end"},{"children":[27],"translation":[0.0541761331,0.102677926,0.117678151],"rotation":[0.713089764,0.004541367,0.004618331,0.701042831],"scale":[0.99999994,1.0,1.0],"name":"frontThigh_R"},{"children":[28],"translation":[0.0007665962,-0.0126098273,-0.05917276],"rotation":[-0.008517905,-7.72993758E-08,-0.000110452427,0.999963641],"scale":[1.0,1.0,0.99999994],"name":"frontLeg_R"},{"children":[29],"translation":[0.000558997737,0.0126116322,-0.0431513675],"rotation":[0.602145135,2.391451E-08,0.00780081,0.798348546],"name":"frontFoot_R"},{"translation":[0.000313054567,-5.09938625E-09,-0.024165133],"name":"frontFoot_R_end"},{"children":[31],"translation":[-0.0541761853,0.100464828,-0.09090437],"rotation":[0.713089645,-0.00454055239,-0.00461890735,0.70104295],"scale":[0.99999994,1.0,1.0],"name":"backThigh_L"},{"children":[32],"translation":[-0.000763501,-0.0264014956,-0.05893778],"rotation":[-0.008517779,-4.14479757E-08,0.000110430636,0.999963641],"name":"backLeg_L"},{"children":[33],"translation":[-0.0005590161,0.0264053121,-0.0431513637],"rotation":[0.6021451,-3.84965233E-08,-0.00780072343,0.7983486],"name":"backFoot_L"},{"translation":[-0.000313059223,-4.317832E-09,-0.0241651274],"name":"backFoot_L_end"},{"children":[35],"translation":[-0.05417616,0.102677934,0.117678165],"rotation":[0.713089764,-0.00454235356,-0.004617282,0.701042831],"scale":[0.99999994,1.0,1.0],"name":"frontThigh_L"},{"children":[36],"translation":[-0.000766622252,-0.0126098273,-0.059172757],"rotation":[-0.008517905,7.776494E-08,0.000110433262,0.999963641],"scale":[1.0,1.0,0.99999994],"name":"frontLeg_L"},{"children":[37],"translation":[-0.000558950938,0.0126116322,-0.0431513637],"rotation":[0.602145135,-2.391451E-08,-0.00780081,0.798348546],"name":"frontFoot_L"},{"translation":[-0.0003130575,-5.09938625E-09,-0.024165133],"name":"frontFoot_L_end"}],"meshes":[{"primitives":[{"attributes":{"POSITION":1,"TANGENT":2,"NORMAL":3,"TEXCOORD_0":4,"JOINTS_0":5,"JOINTS_1":6,"WEIGHTS_0":7,"WEIGHTS_1":8},"indices":0,"material":0}],"name":"body"},{"primitives":[{"attributes":{"POSITION":10,"TANGENT":11,"NORMAL":12,"TEXCOORD_0":13,"JOINTS_0":14,"JOINTS_1":15,"WEIGHTS_0":16,"WEIGHTS_1":17},"indices":9,"material":0}],"name":"everything_else"}],"accessors":[{"bufferView":0,"componentType":5123,"count":960,"type":"SCALAR","name":"accessorIndices"},{"bufferView":1,"componentType":5126,"count":960,"max":[0.117947489,0.2899941,0.181173429],"min":[-0.126433358,0.06950923,-0.206357926],"type":"VEC3","name":"accessorPositions"},{"bufferView":2,"componentType":5126,"count":960,"type":"VEC4","name":"accessorTangents"},{"bufferView":1,"byteOffset":11520,"componentType":5126,"count":960,"type":"VEC3","name":"accessorNormals"},{"bufferView":3,"componentType":5126,"count":960,"type":"VEC2","name":"accessorUVs"},{"bufferView":4,"componentType":5123,"count":960,"type":"VEC4","name":"accessorJoints"},{"bufferView":4,"byteOffset":7680,"componentType":5123,"count":960,"type":"VEC4","name":"accessorJointsExtra"},{"bufferView":2,"byteOffset":15360,"componentType":5126,"count":960,"type":"VEC4","name":"accessorWeights"},{"bufferView":2,"byteOffset":30720,"componentType":5126,"count":960,"type":"VEC4","name":"accessorWeightsExtra"},{"bufferView":0,"byteOffset":1920,"componentType":5123,"count":9696,"type":"SCALAR","name":"accessorIndices"},{"bufferView":1,"byteOffset":23040,"componentType":5126,"count":9696,"max":[0.081482,0.350934744,0.6928542],"min":[-0.08377659,0.000108699765,-0.333950758],"type":"VEC3","name":"accessorPositions"},{"bufferView":2,"byteOffset":46080,"componentType":5126,"count":9696,"type":"VEC4","name":"accessorTangents"},{"bufferView":1,"byteOffset":139392,"componentType":5126,"count":9696,"type":"VEC3","name":"accessorNormals"},{"bufferView":3,"byteOffset":7680,"componentType":5126,"count":9696,"type":"VEC2","name":"accessorUVs"},{"bufferView":4,"byteOffset":15360,"componentType":5123,"count":9696,"type":"VEC4","name":"accessorJoints"},{"bufferView":4,"byteOffset":92928,"componentType":5123,"count":9696,"type":"VEC4","name":"accessorJointsExtra"},{"bufferView":2,"byteOffset":201216,"componentType":5126,"count":9696,"type":"VEC4","name":"accessorWeights"},{"bufferView":2,"byteOffset":356352,"componentType":5126,"count":9696,"type":"VEC4","name":"accessorWeightsExtra"},{"bufferView":5,"componentType":5126,"count":27,"type":"MAT4","name":"accessorInverseBindMatrices"},{"bufferView":5,"byteOffset":1728,"componentType":5126,"count":35,"type":"MAT4","name":"accessorInverseBindMatrices"}],"bufferViews":[{"buffer":0,"byteLength":21312,"name":"bufferViewScalar"},{"buffer":0,"byteOffset":21312,"byteLength":255744,"byteStride":12,"name":"bufferViewFloatVec3"},{"buffer":0,"byteOffset":277056,"byteLength":511488,"byteStride":16,"name":"bufferViewFloatVec4"},{"buffer":0,"byteOffset":788544,"byteLength":85248,"byteStride":8,"name":"bufferViewFloatVec2"},{"buffer":0,"byteOffset":873792,"byteLength":170496,"byteStride":8,"name":"bufferViewUnsignedShortVec4"},{"buffer":0,"byteOffset":1044288,"byteLength":3968,"name":"bufferViewFloatMat4"}],"buffers":[{"uri":"mossum_rig.bin","byteLength":1048256}],"materials":[{"pbrMetallicRoughness":{"baseColorTexture":{"index":0},"metallicFactor":0.0,"roughnessFactor":0.249303535},"name":"MaterialFBXASC046001"}],"textures":[{"sampler":0,"source":0,"name":"mossum_base.png"}],"images":[{"uri":"mossum_base.png"}],"samplers":[{"magFilter":9729,"minFilter":9987}],"skins":[{"inverseBindMatrices":18,"skeleton":0,"joints":[0,4,5,6,7,8,17,18,19,20,21,22,23,24,25,26,27,28,29,30,31,32,33,34,35,36,37],"name":"skeleton #0"},{"inverseBindMatrices":19,"skeleton":0,"joints":[0,4,5,6,7,8,9,10,11,12,13,14,15,16,17,18,19,20,21,22,23,24,25,26,27,28,29,30,31,32,33,34,35,36,37],"name":"skeleton #1"}]}