<!DOCTYPE svg PUBLIC "-//W3C//DTD SVG 1.1//EN" "http://www.w3.org/Graphics/SVG/1.1/DTD/svg11.dtd">
<!-- Uploaded to: SVG Repo, www.svgrepo.com, Transformed by: SVG Repo Mixer Tools -->
<svg width="800px" height="800px" viewBox="-1.6 -1.6 19.20 19.20" fill="none" xmlns="http://www.w3.org/2000/svg" stroke="#cccccc" stroke-width="0.00016">
<g id="SVGRepo_bgCarrier" stroke-width="0"/>
<g id="SVGRepo_tracerCarrier" stroke-linecap="round" stroke-linejoin="round" stroke="#CCCCCC" stroke-width="2.176"> <path d="M1 7.50002C1 3.35788 4.35786 1.52588e-05 8.5 1.52588e-05V5L9.04293 5.54293L11.293 3.29289L12.7072 4.70711L10.4571 6.95714L11 7.50002H16C16 11.6422 12.6421 15 8.5 15V10L7.95714 9.45714L1.45718 15.9571L0.0429688 14.5429L6.54292 8.04292L6.00002 7.50002H1Z" fill="#ffffff"/> </g>
<g id="SVGRepo_iconCarrier"> <path d="M1 7.50002C1 3.35788 4.35786 1.52588e-05 8.5 1.52588e-05V5L9.04293 5.54293L11.293 3.29289L12.7072 4.70711L10.4571 6.95714L11 7.50002H16C16 11.6422 12.6421 15 8.5 15V10L7.95714 9.45714L1.45718 15.9571L0.0429688 14.5429L6.54292 8.04292L6.00002 7.50002H1Z" fill="#ffffff"/> </g>
</svg>