# Blender 5.0.0
# www.blender.org
mtllib JTAS-Gate.mtl
o Pole
v -0.013001 0.001050 -0.199997
v -0.013001 2.497029 -0.199997
v 0.128420 0.001050 -0.141418
v 0.128420 2.497029 -0.141418
v 0.186999 0.001050 0.000003
v 0.186999 2.497029 0.000003
v 0.128420 0.001050 0.141425
v 0.128420 2.497029 0.141425
v -0.013001 0.001050 0.200003
v -0.013001 2.497029 0.200003
v -0.154423 0.001050 0.141425
v -0.154423 2.497029 0.141425
v -0.213001 0.001050 0.000003
v -0.213001 2.497029 0.000003
v -0.154423 0.001050 -0.141418
v -0.154423 2.497029 -0.141418
v -0.013001 2.534025 -0.239997
v 0.156704 2.534025 -0.169702
v 0.226999 2.534025 0.000003
v 0.156704 2.534025 0.169709
v -0.013001 2.534025 0.240003
v -0.182707 2.534025 0.169709
v -0.253001 2.534025 0.000003
v -0.182707 2.534025 -0.169702
v -0.013001 2.963143 -0.239997
v 0.156704 2.963143 -0.169702
v 0.226999 2.963143 0.000003
v 0.156704 2.963143 0.169709
v -0.013001 2.963143 0.240003
v -0.182707 2.963143 0.169709
v -0.253001 2.963143 0.000003
v -0.182707 2.963143 -0.169702
v 0.116225 2.981411 -0.129223
v -0.013001 2.981411 -0.182750
v 0.169752 2.981411 0.000003
v 0.116225 2.981411 0.129230
v -0.013001 2.981411 0.182757
v -0.142228 2.950551 0.129230
v -0.195755 2.981411 0.000003
v -0.142228 2.981411 -0.129223
v 0.116225 3.835708 -0.129223
v -0.013001 3.835708 -0.176045
v 0.169752 3.835708 0.000003
v 0.116225 3.835708 0.129230
v -0.013001 3.835708 0.182757
v -0.142228 3.835708 0.129230
v -0.195755 3.835708 0.000003
v -0.142228 3.835708 -0.129223
v -0.013001 1.233609 -0.199997
v 0.128420 1.233609 -0.141418
v 0.186999 1.233609 0.000003
v 0.128420 1.233609 0.141425
v -0.013001 1.233609 0.200003
v -0.154423 1.233609 0.141425
v -0.213001 1.233609 0.000003
v -0.154423 1.233609 -0.141418
v 0.128420 0.617329 -0.141418
v 0.186999 0.617329 0.000003
v 0.128420 0.617329 0.141425
v -0.013001 0.617329 0.200003
v -0.154423 0.617329 0.141425
v -0.213001 0.617329 0.000003
v -0.154423 0.617329 -0.141418
v -0.013001 0.617329 -0.199997
v -0.013001 1.849889 -0.199997
v 0.128420 1.849889 -0.141418
v 0.186999 1.849889 0.000003
v 0.128420 1.849889 0.141425
v -0.013001 1.849889 0.200003
v -0.154423 1.849889 0.141425
v -0.213001 1.849889 0.000003
v -0.154423 1.849889 -0.141418
v -0.200617 1.233609 0.160559
v -0.259195 1.233609 0.019138
v -0.200617 0.617329 0.160559
v -0.259195 0.617329 0.019138
v -0.201841 2.534025 0.215903
v -0.032135 2.534025 0.286197
v -0.201841 2.963143 0.215903
v -0.032136 2.963143 0.286197
v 0.147554 1.849889 -0.187612
v 0.147554 1.233609 -0.187612
v 0.006133 1.233609 -0.246191
v 0.006133 1.849889 -0.246191
v 0.233193 1.849889 0.019138
v 0.233193 1.233609 0.019138
v 0.174614 1.849889 0.160559
v 0.174614 1.233609 0.160559
v -0.225721 2.981411 0.012416
v -0.172193 2.981411 0.141642
v -0.225721 3.835708 0.012416
v -0.172193 3.835708 0.141642
v 0.116225 3.393129 0.129230
v -0.013001 3.393129 0.182757
v 0.116225 3.393129 -0.129223
v 0.169752 3.393129 0.000003
v -0.195755 3.393129 0.000003
v -0.142228 3.393129 -0.129223
v -0.142228 3.393129 0.129230
v -0.013001 3.393129 -0.179398
v -0.225721 3.393129 0.012416
v -0.172193 3.393129 0.141642
v -0.187029 3.835708 -0.147780
v -0.240557 3.835708 -0.018554
v -0.240557 3.393129 -0.018554
v -0.187029 3.393129 -0.147780
vn 0.3827 -0.0000 -0.9239
vn 0.9239 -0.0000 -0.3827
vn 0.9239 -0.0000 0.3827
vn 0.3827 -0.0000 0.9239
vn -0.3827 -0.0000 0.9239
vn -0.9239 -0.0000 0.3827
vn -0.2707 -0.7067 -0.6536
vn -0.9239 -0.0000 -0.3827
vn -0.3827 -0.0000 -0.9239
vn -0.0000 -1.0000 -0.0000
vn 0.2707 -0.7067 -0.6536
vn 0.6536 -0.7067 0.2707
vn -0.6536 -0.7067 0.2707
vn 0.2707 -0.7067 0.6536
vn -0.6536 -0.7067 -0.2707
vn 0.6536 -0.7067 -0.2707
vn -0.2707 -0.7067 0.6536
vn -0.3016 0.9452 -0.1249
vn -0.0000 1.0000 -0.0000
vn -0.1080 0.9941 0.0130
vn 0.3016 0.9452 0.1249
vn 0.1249 0.9452 -0.3016
vn -0.1249 0.9452 -0.3016
vn -0.0130 0.9941 0.1080
vn 0.1249 0.9452 0.3016
vn 0.3016 0.9452 -0.1249
vn 0.3514 0.0035 -0.9362
vn -0.3514 0.0035 -0.9362
vn -0.4329 -0.8986 0.0720
vn -0.3724 0.0038 -0.9281
vn 0.3724 0.0038 -0.9281
vt 1.000000 0.875000
vt 1.000000 1.000000
vt 0.875000 1.000000
vt 0.875000 0.875000
vt 0.750000 1.000000
vt 0.750000 0.875000
vt 0.625000 1.000000
vt 0.625000 0.875000
vt 0.500000 1.000000
vt 0.500000 0.875000
vt 0.375000 1.000000
vt 0.375000 0.875000
vt 0.250000 1.000000
vt 0.250000 0.875000
vt 0.000000 1.000000
vt 0.125000 1.000000
vt 0.125000 0.875000
vt 0.000000 0.875000
vt 0.750000 0.490000
vt 0.919706 0.419706
vt 0.990000 0.250000
vt 0.919706 0.080294
vt 0.750000 0.010000
vt 0.580294 0.080294
vt 0.510000 0.250000
vt 0.580294 0.419706
vt 0.419706 0.419706
vt 0.250000 0.490000
vt 0.080294 0.419706
vt 0.010000 0.250000
vt 0.080294 0.080294
vt 0.250000 0.010000
vt 0.419706 0.080294
vt 0.490000 0.250000
vt 0.125000 0.625000
vt 0.125000 0.750000
vt 0.000000 0.750000
vt 0.000000 0.625000
vt 0.250000 0.625000
vt 0.250000 0.750000
vt 0.375000 0.625000
vt 0.375000 0.750000
vt 0.500000 0.625000
vt 0.500000 0.750000
vt 0.625000 0.625000
vt 0.625000 0.750000
vt 0.750000 0.625000
vt 0.750000 0.750000
vt 0.875000 0.625000
vt 0.875000 0.750000
vt 1.000000 0.625000
vt 1.000000 0.750000
vt 1.000000 0.500000
vt 0.875000 0.500000
vt 0.750000 0.500000
vt 0.625000 0.500000
vt 0.500000 0.500000
vt 0.375000 0.500000
vt 0.250000 0.500000
vt 0.125000 0.500000
vt 0.000000 0.500000
s 0
usemtl Material.001
f 65/1/1 2/2/1 4/3/1 66/4/1
f 66/4/2 4/3/2 6/5/2 67/6/2
f 67/6/3 6/5/3 8/7/3 68/8/3
f 68/8/4 8/7/4 10/9/4 69/10/4
f 69/10/5 10/9/5 12/11/5 70/12/5
f 70/12/6 12/11/6 14/13/6 71/14/6
f 2/15/7 16/16/7 24/16/7 17/15/7
f 71/14/8 14/13/8 16/16/8 72/17/8
f 72/17/9 16/16/9 2/15/9 65/18/9
f 1/19/10 3/20/10 5/21/10 7/22/10 9/23/10 11/24/10 13/25/10 15/26/10
f 24/16/8 23/13/8 31/13/8 32/16/8
f 4/3/11 2/2/11 17/2/11 18/3/11
f 8/7/12 6/5/12 19/5/12 20/7/12
f 14/13/13 12/11/13 22/11/13 23/13/13
f 10/9/14 8/7/14 20/7/14 21/9/14
f 16/16/15 14/13/15 23/13/15 24/16/15
f 6/5/16 4/3/16 18/3/16 19/5/16
f 12/11/17 10/9/17 21/9/17 22/11/17
f 32/16/18 31/13/18 39/13/18 40/16/18
f 29/9/19 30/11/19 79/11/19 80/9/19
f 20/7/3 19/5/3 27/5/3 28/7/3
f 18/3/1 17/2/1 25/2/1 26/3/1
f 17/15/9 24/16/9 32/16/9 25/15/9
f 23/13/6 22/11/6 30/11/6 31/13/6
f 21/9/4 20/7/4 28/7/4 29/9/4
f 19/5/2 18/3/2 26/3/2 27/5/2
f 94/9/4 93/7/4 44/7/4 45/9/4
f 30/11/20 29/9/20 37/9/20 38/11/20
f 28/7/21 27/5/21 35/5/21 36/7/21
f 26/3/22 25/2/22 34/2/22 33/3/22
f 25/15/23 32/16/23 40/16/23 34/15/23
f 31/13/24 30/11/24 38/11/24 39/13/24
f 29/9/25 28/7/25 36/7/25 37/9/25
f 27/5/26 26/3/26 33/3/26 35/5/26
f 41/27/19 42/28/19 48/29/19 47/30/19 46/31/19 45/32/19 44/33/19 43/34/19
f 96/5/2 95/3/2 41/3/2 43/5/2
f 97/13/5 47/13/5 104/13/5 105/13/5
f 99/11/5 94/9/5 45/9/5 46/11/5
f 93/7/3 96/5/3 43/5/3 44/7/3
f 95/3/27 100/2/27 42/2/27 41/3/27
f 100/15/28 98/16/28 48/16/28 42/15/28
f 39/13/29 38/11/29 90/11/29 89/13/29
f 63/35/9 56/36/9 49/37/9 64/38/9
f 62/39/8 55/40/8 56/36/8 63/35/8
f 61/41/4 54/42/4 73/42/4 75/41/4
f 60/43/5 53/44/5 54/42/5 61/41/5
f 59/45/4 52/46/4 53/44/4 60/43/4
f 58/47/3 51/48/3 52/46/3 59/45/3
f 57/49/2 50/50/2 51/48/2 58/47/2
f 64/51/1 49/52/1 50/50/1 57/49/1
f 1/53/1 64/51/1 57/49/1 3/54/1
f 3/54/2 57/49/2 58/47/2 5/55/2
f 5/55/3 58/47/3 59/45/3 7/56/3
f 7/56/4 59/45/4 60/43/4 9/57/4
f 9/57/5 60/43/5 61/41/5 11/58/5
f 11/58/6 61/41/6 62/39/6 13/59/6
f 13/59/8 62/39/8 63/35/8 15/60/8
f 15/60/9 63/35/9 64/38/9 1/61/9
f 56/36/9 72/17/9 65/18/9 49/37/9
f 55/40/8 71/14/8 72/17/8 56/36/8
f 54/42/6 70/12/6 71/14/6 55/40/6
f 53/44/5 69/10/5 70/12/5 54/42/5
f 52/46/4 68/8/4 69/10/4 53/44/4
f 67/6/19 68/8/19 87/8/19 85/6/19
f 50/50/2 66/4/2 67/6/2 51/48/2
f 65/1/19 66/4/19 81/4/19 84/1/19
f 75/41/6 73/42/6 74/40/6 76/39/6
f 62/39/10 61/41/10 75/41/10 76/39/10
f 54/42/19 55/40/19 74/40/19 73/42/19
f 55/40/9 62/39/9 76/39/9 74/40/9
f 77/11/5 78/9/5 80/9/5 79/11/5
f 30/11/8 22/11/8 77/11/8 79/11/8
f 22/11/10 21/9/10 78/9/10 77/11/10
f 21/9/3 29/9/3 80/9/3 78/9/3
f 83/52/1 84/1/1 81/4/1 82/50/1
f 66/4/3 50/50/3 82/50/3 81/4/3
f 49/37/8 65/18/8 84/18/8 83/37/8
f 50/50/10 49/52/10 83/52/10 82/50/10
f 86/48/3 85/6/3 87/8/3 88/46/3
f 51/48/1 67/6/1 85/6/1 86/48/1
f 52/46/10 51/48/10 86/48/10 88/46/10
f 68/8/5 52/46/5 88/46/5 87/8/5
f 101/13/6 102/11/6 92/11/6 91/13/6
f 46/31/19 47/30/19 91/30/19 92/31/19
f 99/11/4 46/11/4 92/11/4 102/11/4
f 97/13/9 39/13/9 89/13/9 101/13/9
f 47/13/9 97/13/9 101/13/9 91/13/9
f 38/11/4 99/11/4 102/11/4 90/11/4
f 89/13/6 90/11/6 102/11/6 101/13/6
f 34/15/30 40/16/30 98/16/30 100/15/30
f 33/3/31 34/2/31 100/2/31 95/3/31
f 36/7/3 35/5/3 96/5/3 93/7/3
f 38/11/5 37/9/5 94/9/5 99/11/5
f 40/16/8 39/13/8 97/13/8 98/16/8
f 35/5/2 33/3/2 95/3/2 96/5/2
f 37/9/4 36/7/4 93/7/4 94/9/4
f 106/16/8 105/13/8 104/13/8 103/16/8
f 48/16/1 98/16/1 106/16/1 103/16/1
f 47/30/19 48/29/19 103/29/19 104/30/19
f 98/16/10 97/13/10 105/13/10 106/16/10
o Pole.001
v -0.013001 0.001050 4.200003
v -0.013001 2.339822 4.200003
v -0.154423 0.001050 4.141424
v -0.154423 2.339822 4.141424
v -0.213001 0.001050 4.000003
v -0.213001 2.339822 4.000003
v -0.154423 0.001050 3.858582
v -0.154423 2.339822 3.858582
v -0.013001 0.001050 3.800003
v -0.013001 2.339822 3.800003
v 0.128420 0.001050 3.858582
v 0.128420 2.466169 3.858582
v 0.186999 0.001050 4.000003
v 0.186999 2.466169 4.000003
v 0.128420 0.001050 4.141424
v 0.128420 2.339822 4.141424
v -0.013001 2.376818 4.240003
v -0.182707 2.376818 4.169709
v -0.253001 2.376818 4.000003
v -0.182707 2.376818 3.830297
v -0.013001 2.376818 3.760003
v 0.156704 2.376818 3.830297
v 0.226999 2.376818 4.000003
v 0.156704 2.376818 4.169708
v -0.013001 2.805936 4.240003
v -0.182707 2.805936 4.169709
v -0.253001 2.805936 4.000003
v -0.182707 2.805936 3.830297
v -0.013001 2.805936 3.760003
v 0.156704 2.805936 3.830297
v 0.226999 2.805936 4.000003
v 0.156704 2.805936 4.169708
v -0.142228 2.824204 4.129229
v -0.013001 2.824204 4.182756
v -0.195755 2.824204 4.000003
v -0.142228 2.824204 3.870777
v -0.013001 2.824204 3.817249
v 0.116225 2.824204 3.870776
v 0.169752 2.824204 4.000003
v 0.116225 2.824204 4.129229
v -0.142228 3.835708 4.129229
v -0.013001 3.835708 4.169114
v -0.195755 3.835708 4.000003
v -0.142228 3.835708 3.870777
v -0.013001 3.835708 3.817249
v 0.116225 3.835708 3.870776
v 0.169752 3.835708 4.000003
v 0.116225 3.835708 4.129229
v -0.013001 1.958532 4.200003
v -0.154423 1.958532 4.141424
v -0.213001 1.958532 4.000003
v -0.154423 1.958532 3.858582
v -0.013001 1.958532 3.800003
v 0.128420 1.958532 3.858582
v 0.186999 1.958532 4.000003
v 0.128420 1.958532 4.141424
v -0.154423 0.493744 4.141424
v -0.213001 0.493744 4.000003
v -0.154423 0.493744 3.858582
v -0.013001 0.493744 3.800003
v 0.128420 0.493744 3.858582
v 0.186999 0.493744 4.000003
v 0.128420 0.493744 4.141424
v -0.013001 0.493744 4.200003
v -0.013001 1.365475 4.200003
v -0.154423 1.365475 4.141424
v -0.213001 1.365475 4.000003
v -0.154423 1.365475 3.858582
v -0.013001 1.365475 3.800003
v 0.128420 1.365475 3.858582
v 0.186999 1.365475 4.000003
v 0.128420 1.365475 4.141424
v -0.259195 1.958532 3.980869
v -0.200617 1.958532 3.839447
v -0.259195 1.365475 3.980869
v -0.200617 1.365475 3.839447
v 0.175838 2.376818 3.784103
v 0.006133 2.376818 3.713809
v 0.175839 2.805936 3.784103
v 0.006133 2.805936 3.713809
v -0.173557 1.365475 4.187618
v -0.173557 0.493744 4.187618
v -0.032135 0.493744 4.246197
v -0.032135 1.365475 4.246197
v 0.174614 2.339822 4.160558
v 0.233193 2.339822 4.019137
v 0.233193 1.958532 4.019137
v 0.174614 1.958532 4.160558
v 0.233193 2.339822 3.980869
v 0.174614 2.339822 3.839447
v 0.174614 1.958532 3.839447
v 0.233193 1.958532 3.980869
v -0.181211 0.493744 3.793910
v -0.181211 0.001050 3.793910
v -0.039789 0.001050 3.735331
v -0.039789 0.493744 3.735331
v 0.133589 2.824204 3.828856
v 0.004363 2.824204 3.775329
v 0.133589 3.835708 3.828856
v 0.004363 3.835708 3.775329
vn -0.3827 -0.0000 0.9239
vn -0.9239 -0.0000 0.3827
vn -0.9239 -0.0000 -0.3827
vn -0.3827 -0.0000 -0.9239
vn 0.3827 -0.0000 -0.9239
vn 0.2707 -0.7067 0.6536
vn 0.6068 0.6012 0.5199
vn 0.3827 -0.0000 0.9239
vn -0.0000 -1.0000 -0.0000
vn 0.9239 -0.0000 0.3827
vn -0.2707 -0.7067 0.6536
vn -0.6536 -0.7067 -0.2707
vn -0.8537 -0.3822 0.3536
vn -0.2707 -0.7067 -0.6536
vn -0.3986 -0.7803 -0.4820
vn -0.6536 -0.7067 0.2707
vn 0.0589 -0.7803 0.6227
vn 0.3016 0.9452 0.1249
vn -0.0000 1.0000 -0.0000
vn 0.9239 -0.0000 -0.3827
vn 0.1249 0.9452 -0.3016
vn -0.3016 0.9452 -0.1249
vn -0.1249 0.9452 0.3016
vn 0.1249 0.9452 0.3016
vn 0.3016 0.9452 -0.1249
vn -0.1249 0.9452 -0.3016
vn -0.3016 0.9452 0.1249
vn -0.3399 0.0063 0.9404
vn 0.3399 0.0063 0.9404
vn 0.8591 0.3680 -0.3558
vt 1.000000 0.897036
vt 1.000000 1.000000
vt 0.875000 1.000000
vt 0.875000 0.897036
vt 0.750000 1.000000
vt 0.750000 0.897036
vt 0.625000 1.000000
vt 0.625000 0.897036
vt 0.500000 1.000000
vt 0.500000 0.897036
vt 0.375000 1.000000
vt 0.375000 0.897036
vt 0.000000 1.000000
vt 0.125000 1.000000
vt 0.250000 1.000000
vt 0.125000 0.897036
vt 0.000000 0.897036
vt 0.750000 0.490000
vt 0.919706 0.419706
vt 0.990000 0.250000
vt 0.919706 0.080294
vt 0.750000 0.010000
vt 0.580294 0.080294
vt 0.510000 0.250000
vt 0.580294 0.419706
vt 0.419706 0.419706
vt 0.250000 0.490000
vt 0.080294 0.419706
vt 0.010000 0.250000
vt 0.080294 0.080294
vt 0.250000 0.010000
vt 0.419706 0.080294
vt 0.490000 0.250000
vt 0.125000 0.776746
vt 0.000000 0.776746
vt 0.250000 0.776746
vt 0.250000 0.897036
vt 0.375000 0.776746
vt 0.500000 0.776746
vt 0.625000 0.776746
vt 0.750000 0.776746
vt 0.875000 0.776746
vt 1.000000 0.776746
vt 1.000000 0.500000
vt 1.000000 0.599933
vt 0.875000 0.599933
vt 0.875000 0.500000
vt 0.750000 0.599933
vt 0.750000 0.500000
vt 0.625000 0.599933
vt 0.625000 0.500000
vt 0.500000 0.500000
vt 0.500000 0.599933
vt 0.375000 0.599933
vt 0.375000 0.500000
vt 0.250000 0.599933
vt 0.250000 0.500000
vt 0.125000 0.599933
vt 0.125000 0.500000
vt 0.000000 0.599933
vt 0.000000 0.500000
s 0
usemtl Material.001
f 155/62/32 108/63/32 110/64/32 156/65/32
f 156/65/33 110/64/33 112/66/33 157/67/33
f 157/67/34 112/66/34 114/68/34 158/69/34
f 158/69/35 114/68/35 116/70/35 159/71/35
f 159/71/36 116/70/36 118/72/36 160/73/36
f 160/73/35 118/72/35 196/72/35 197/73/35
f 108/74/37 122/75/37 130/75/37 123/74/37
f 120/76/38 122/75/38 191/75/38 192/76/38
f 162/77/39 122/75/39 108/74/39 155/78/39
f 107/79/40 109/80/40 111/81/40 113/82/40 115/83/40 117/84/40 119/85/40 121/86/40
f 130/75/41 129/76/41 137/76/41 138/75/41
f 110/64/42 108/63/42 123/63/42 124/64/42
f 114/68/43 112/66/43 125/66/43 126/68/43
f 120/76/44 118/72/44 128/72/44 129/76/44
f 116/70/45 114/68/45 126/68/45 127/70/45
f 122/75/46 120/76/46 129/76/46 130/75/46
f 112/66/47 110/64/47 124/64/47 125/66/47
f 118/72/48 116/70/48 127/70/48 128/72/48
f 138/75/49 137/76/49 145/76/49 146/75/49
f 135/70/50 136/72/50 185/72/50 186/70/50
f 126/68/34 125/66/34 133/66/34 134/68/34
f 124/64/32 123/63/32 131/63/32 132/64/32
f 123/74/39 130/75/39 138/75/39 131/74/39
f 129/76/51 128/72/51 136/72/51 137/76/51
f 127/70/35 126/68/35 134/68/35 135/70/35
f 125/66/33 124/64/33 132/64/33 133/66/33
f 143/70/35 142/68/35 150/68/35 151/70/35
f 136/72/52 135/70/52 143/70/52 144/72/52
f 134/68/53 133/66/53 141/66/53 142/68/53
f 132/64/54 131/63/54 140/63/54 139/64/54
f 131/74/55 138/75/55 146/75/55 140/74/55
f 137/76/56 136/72/56 144/72/56 145/76/56
f 135/70/57 134/68/57 142/68/57 143/70/57
f 133/66/58 132/64/58 139/64/58 141/66/58
f 147/87/50 148/88/50 154/89/50 153/90/50 152/91/50 151/92/50 150/93/50 149/94/50
f 141/66/33 139/64/33 147/64/33 149/66/33
f 146/75/41 145/76/41 153/76/41 154/75/41
f 152/72/41 144/72/41 203/72/41 205/72/41
f 142/68/34 141/66/34 149/66/34 150/68/34
f 139/64/59 140/63/59 148/63/59 147/64/59
f 140/74/60 146/75/60 154/75/60 148/74/60
f 145/76/51 144/72/51 152/72/51 153/76/51
f 178/95/39 162/77/39 155/78/39 171/96/39
f 177/97/41 161/98/41 162/77/41 178/95/41
f 176/99/51 160/73/51 161/98/51 177/97/51
f 175/100/36 159/71/36 160/73/36 176/99/36
f 174/101/35 158/69/35 159/71/35 175/100/35
f 174/101/40 173/102/40 181/102/40 182/101/40
f 172/103/33 156/65/33 157/67/33 173/102/33
f 171/104/32 155/62/32 156/65/32 172/103/32
f 107/105/32 170/106/32 163/107/32 109/108/32
f 109/108/33 163/107/33 164/109/33 111/110/33
f 111/110/34 164/109/34 165/111/34 113/112/34
f 113/112/33 165/111/33 199/111/33 200/112/33
f 115/113/36 166/114/36 167/115/36 117/116/36
f 117/116/51 167/115/51 168/117/51 119/118/51
f 119/118/41 168/117/41 169/119/41 121/120/41
f 121/120/39 169/119/39 170/121/39 107/122/39
f 171/104/50 172/103/50 187/103/50 190/104/50
f 163/107/33 172/103/33 173/102/33 164/109/33
f 164/109/34 173/102/34 174/101/34 165/111/34
f 165/111/35 174/101/35 175/100/35 166/114/35
f 166/114/36 175/100/36 176/99/36 167/115/36
f 167/115/51 176/99/51 177/97/51 168/117/51
f 168/117/41 177/97/41 178/95/41 169/119/41
f 169/119/39 178/95/39 171/96/39 170/121/39
f 181/102/34 179/67/34 180/69/34 182/101/34
f 173/102/32 157/67/32 179/67/32 181/102/32
f 157/67/50 158/69/50 180/69/50 179/67/50
f 158/69/36 174/101/36 182/101/36 180/69/36
f 183/72/36 184/70/36 186/70/36 185/72/36
f 136/72/41 128/72/41 183/72/41 185/72/41
f 128/72/40 127/70/40 184/70/40 183/72/40
f 127/70/34 135/70/34 186/70/34 184/70/34
f 189/106/32 190/104/32 187/103/32 188/107/32
f 172/103/34 163/107/34 188/107/34 187/103/34
f 170/121/41 171/96/41 190/96/41 189/121/41
f 163/107/40 170/106/40 189/106/40 188/107/40
f 193/98/41 192/76/41 191/75/41 194/77/41
f 162/77/40 161/98/40 193/98/40 194/77/40
f 122/75/32 162/77/32 194/77/32 191/75/32
f 161/98/36 120/76/36 192/76/36 193/98/36
f 197/73/51 196/72/51 195/76/51 198/98/51
f 161/98/40 160/73/40 197/73/40 198/98/40
f 118/72/61 120/76/61 195/76/61 196/72/61
f 120/76/39 161/98/39 198/98/39 195/76/39
f 200/112/35 199/111/35 202/114/35 201/113/35
f 165/111/50 166/114/50 202/114/50 199/111/50
f 166/114/51 115/113/51 201/113/51 202/114/51
f 115/83/40 113/82/40 200/82/40 201/83/40
f 203/72/36 204/70/36 206/70/36 205/72/36
f 144/72/40 143/70/40 204/70/40 203/72/40
f 151/92/50 152/91/50 205/91/50 206/92/50
f 143/70/34 151/70/34 206/70/34 204/70/34
o Gate
v -0.000000 3.457668 3.869443
v 0.000000 0.519937 3.869443
v -0.000000 3.457668 0.130557
v 0.000000 0.519937 0.130557
vn 1.0000 -0.0000 -0.0000
vt 0.000000 0.000000
vt 1.000000 0.000000
vt 1.000000 1.000000
vt 0.000000 1.000000
s 0
usemtl Material.002
f 207/123/62 208/124/62 210/125/62 209/126/62
